<svg aria-hidden="true" style="position: absolute; width: 0; height: 0; overflow: hidden;" version="1.1" xmlns="http://www.w3.org/2000/svg" xmlns:xlink="http://www.w3.org/1999/xlink">
<defs>
<symbol id="icon-facebook" viewBox="0 0 32 32">
<path d="M21.328 5.312h2.928v-5.088c-0.512-0.064-2.24-0.224-4.256-0.224-4.224 0-7.104 2.656-7.104 7.52v4.48h-4.64v5.68h4.64v14.32h5.696v-14.304h4.464l0.704-5.696h-5.168v-3.92c0-1.648 0.448-2.768 2.736-2.768z"></path>
</symbol>
<symbol id="icon-instagram" viewBox="0 0 32 32">
<path d="M31.969 9.408c-0.075-1.7-0.35-2.869-0.744-3.882-0.406-1.075-1.032-2.038-1.851-2.838-0.8-0.813-1.769-1.444-2.832-1.844-1.019-0.394-2.182-0.669-3.882-0.744-1.713-0.081-2.257-0.1-6.601-0.1s-4.888 0.019-6.595 0.094c-1.7 0.075-2.869 0.35-3.882 0.744-1.075 0.406-2.038 1.031-2.838 1.85-0.813 0.8-1.444 1.769-1.844 2.832-0.394 1.019-0.669 2.182-0.744 3.882-0.081 1.713-0.1 2.257-0.1 6.601s0.019 4.888 0.094 6.595c0.075 1.7 0.35 2.869 0.744 3.882 0.406 1.075 1.038 2.038 1.85 2.838 0.8 0.813 1.769 1.444 2.832 1.844 1.019 0.394 2.182 0.669 3.882 0.744 1.706 0.075 2.25 0.094 6.595 0.094s4.888-0.019 6.595-0.094c1.7-0.075 2.869-0.35 3.882-0.744 2.151-0.832 3.851-2.532 4.682-4.682 0.394-1.019 0.669-2.182 0.744-3.882 0.075-1.707 0.094-2.251 0.094-6.595s-0.006-4.888-0.081-6.595zM29.087 22.473c-0.069 1.563-0.331 2.407-0.55 2.969-0.538 1.394-1.644 2.5-3.038 3.038-0.563 0.219-1.413 0.481-2.969 0.55-1.688 0.075-2.194 0.094-6.464 0.094s-4.782-0.019-6.464-0.094c-1.563-0.069-2.407-0.331-2.969-0.55-0.694-0.256-1.325-0.663-1.838-1.194-0.531-0.519-0.938-1.144-1.194-1.838-0.219-0.563-0.481-1.413-0.55-2.969-0.075-1.688-0.094-2.194-0.094-6.464s0.019-4.782 0.094-6.464c0.069-1.563 0.331-2.407 0.55-2.969 0.256-0.694 0.663-1.325 1.2-1.838 0.519-0.531 1.144-0.938 1.838-1.194 0.563-0.219 1.413-0.481 2.969-0.55 1.688-0.075 2.194-0.094 6.464-0.094 4.276 0 4.782 0.019 6.464 0.094 1.563 0.069 2.407 0.331 2.969 0.55 0.694 0.256 1.325 0.662 1.838 1.194 0.531 0.519 0.938 1.144 1.194 1.838 0.219 0.563 0.481 1.413 0.55 2.969 0.075 1.688 0.094 2.194 0.094 6.464s-0.019 4.77-0.094 6.458z"></path>
<path d="M16.059 7.783c-4.538 0-8.22 3.682-8.22 8.22s3.682 8.22 8.22 8.22c4.539 0 8.22-3.682 8.22-8.22s-3.682-8.22-8.22-8.22zM16.059 21.335c-2.944 0-5.332-2.388-5.332-5.332s2.388-5.332 5.332-5.332c2.944 0 5.332 2.388 5.332 5.332s-2.388 5.332-5.332 5.332z"></path>
<path d="M26.524 7.458c0 1.060-0.859 1.919-1.919 1.919s-1.919-0.859-1.919-1.919c0-1.060 0.859-1.919 1.919-1.919s1.919 0.859 1.919 1.919z"></path>
</symbol>
<symbol id="icon-linkedin" viewBox="0 0 32 32">
<path d="M31.992 32v-0.001h0.008v-11.736c0-5.741-1.236-10.164-7.948-10.164-3.227 0-5.392 1.771-6.276 3.449h-0.093v-2.913h-6.364v21.364h6.627v-10.579c0-2.785 0.528-5.479 3.977-5.479 3.399 0 3.449 3.179 3.449 5.657v10.401h6.62z"></path>
<path d="M0.528 10.636h6.635v21.364h-6.635v-21.364z"></path>
<path d="M3.843 0c-2.121 0-3.843 1.721-3.843 3.843s1.721 3.879 3.843 3.879c2.121 0 3.843-1.757 3.843-3.879-0.001-2.121-1.723-3.843-3.843-3.843v0z"></path>
</symbol>
<symbol id="icon-logo1" viewBox="0 0 57 32">
<path fill="#afb1b8" style="fill: var(--color1, #afb1b8)" d="M20.267 3.733l3.733 3.52h-6.933v17.173h18.133v-6.56l3.733 3.52v-17.653h-18.667zM35.040 17.44l-10.613-9.973h10.613v10.027zM31.733 21.92h-11.787v-11.52h0.8v10.72h10.987v0.8zM22.72 26.72l-0.427 0.907-0.427-0.96h-0.373l0.64 1.173v0.747h0.32v-0.747l0.64-1.173h-0.373zM23.253 28.64l0.16-0.48h0.747l0.16 0.48h0.32l-0.64-1.973h-0.32l-0.747 1.973h0.32zM23.787 27.147l0.267 0.747h-0.533l0.267-0.747zM25.547 27.84l-0.107 0.267c0 0.16 0.053 0.267 0.213 0.373 0.107 0.107 0.213 0.16 0.427 0.16 0.16 0 0.32 0 0.48-0.16l0.107 0.16h0.373l-0.267-0.373c0.107-0.107 0.16-0.32 0.16-0.533h-0.267c0 0.107 0 0.213-0.107 0.32l-0.373-0.427 0.16-0.107 0.16-0.16c0.044-0.066 0.070-0.147 0.070-0.234 0-0.117-0.047-0.223-0.123-0.3l0 0c-0.082-0.067-0.187-0.107-0.302-0.107-0.006 0-0.013 0-0.019 0l0.001-0c-0.015-0.002-0.033-0.002-0.050-0.002-0.122 0-0.235 0.041-0.324 0.11l0.001-0.001c-0.107 0.107-0.16 0.213-0.16 0.373l0.053 0.16 0.16 0.267c-0.103 0.059-0.191 0.13-0.266 0.212l-0.001 0.001zM26.4 28.267c-0.088 0.067-0.199 0.107-0.32 0.107v0l-0.213-0.053c-0.065-0.049-0.107-0.126-0.107-0.213v0c0-0.107 0.053-0.213 0.16-0.267h0.053l0.427 0.427zM26.027 27.467l-0.107-0.32v-0.16h0.373l0.053 0.16-0.053 0.16-0.213 0.16zM29.12 28.48c0.16-0.107 0.213-0.267 0.213-0.48h-0.32c0 0.16 0 0.213-0.107 0.267-0.053 0.107-0.16 0.107-0.32 0.107-0.004 0-0.009 0-0.013 0-0.126 0-0.238-0.063-0.306-0.159l-0.001-0.001-0.107-0.48v-0.16c0-0.213 0.053-0.373 0.16-0.48 0.053-0.107 0.16-0.107 0.32-0.107l0.267 0.053 0.107 0.32h0.32c0-0.213-0.053-0.373-0.213-0.533l-0.533-0.107c-0.107 0-0.267 0-0.373 0.107l-0.267 0.267c-0.069 0.137-0.109 0.298-0.109 0.469 0 0.023 0.001 0.045 0.002 0.067l-0-0.003v0.16c0 0.16 0 0.32 0.107 0.427 0.053 0.16 0.16 0.267 0.267 0.32l0.373 0.107c0.267 0 0.427-0.053 0.533-0.16zM31.093 28.213l0.053-0.533v-0.053c0-0.213 0-0.373-0.107-0.533-0.13-0.223-0.368-0.371-0.64-0.373h-0c-0.16 0-0.32 0-0.427 0.107-0.107 0.053-0.213 0.16-0.267 0.32-0.107 0.107-0.107 0.267-0.107 0.48v0.107c0 0.16 0 0.32 0.107 0.48 0 0.16 0.16 0.267 0.267 0.32l0.427 0.107c0.16 0 0.267 0 0.373-0.107 0.16-0.053 0.213-0.213 0.32-0.32zM30.72 27.147l0.107 0.48v0.107c0 0.213 0 0.373-0.107 0.48l-0.32 0.16c-0.019 0.003-0.041 0.005-0.063 0.005-0.129 0-0.242-0.065-0.309-0.164l-0.001-0.001-0.107-0.533v-0.053c0-0.213 0-0.373 0.107-0.533l0.373-0.107c0.107 0 0.213 0 0.32 0.16z"></path>
</symbol>
<symbol id="icon-logo2" viewBox="0 0 57 32">
<path fill="#afb1b8" style="fill: var(--color1, #afb1b8)" d="M26.72 3.2h-0.587c-0.103-0.003-0.225-0.005-0.347-0.005s-0.243 0.002-0.364 0.005l0.018-0c-1.973 0-3.893 0.533-5.653 1.333l-0.267 0.107v11.893l0.533-0.213c1.743-0.592 3.752-0.959 5.84-1.013l0.027-0.001v1.6h-0.587c-2.696 0.137-5.192 0.871-7.397 2.072l0.091-0.045v-15.147c2.29-1.369 5.049-2.181 7.998-2.187h0.268c1.008 0.045 1.959 0.179 2.879 0.394l-0.105-0.021v1.493c-0.64-0.16-1.28-0.213-1.92-0.267h-0.48zM29.387 4.747h1.067c2.956-0.008 5.73-0.778 8.138-2.124l-0.085 0.044v14.933c-2.273 1.328-5.003 2.113-7.918 2.113-1.086 0-2.146-0.109-3.171-0.316l0.102 0.017v-14.933c0.556 0.129 1.214 0.224 1.886 0.265l0.034 0.002zM36.96 4.853l-0.533 0.16-1.493 0.48c-1.346 0.355-2.892 0.558-4.485 0.558-0.336 0-0.67-0.009-1.001-0.027l0.046 0.002h-0.427v12.107h0.32l1.067 0.107c2.313-0.004 4.496-0.556 6.429-1.531l-0.082 0.038 0.213-0.107v-11.787z"></path>
<path fill="#afb1b8" style="fill: var(--color1, #afb1b8)" d="M19.040 24.107c-0.14-0.13-0.327-0.21-0.533-0.213h-0.374c-0.314 0.113-0.535 0.408-0.535 0.755 0 0.016 0 0.032 0.001 0.047l-0-0.002v2.027c0 0.16 0 0.32 0.107 0.427 0 0.107 0.107 0.213 0.16 0.267l0.32 0.16h0.587c0.315-0.13 0.533-0.435 0.533-0.791 0-0.003-0-0.006-0-0.009v0-0.213h-0.533v0.32l-0.213 0.213h-0.107c-0.015 0.003-0.032 0.005-0.050 0.005-0.089 0-0.168-0.044-0.216-0.111l-0.001-0.001-0.053-0.32v-1.92l0.053-0.267c0.042-0.095 0.136-0.161 0.245-0.161 0.008 0 0.015 0 0.023 0.001l-0.001-0c0.096 0.012 0.176 0.074 0.213 0.158l0.001 0.002c0.107 0.053 0.107 0.16 0.107 0.267v0.16h0.533v-0.213c-0.006-0.249-0.107-0.474-0.267-0.64l0 0zM22.187 24.107c-0.163-0.131-0.372-0.21-0.6-0.21-0.11 0-0.215 0.018-0.314 0.052l0.007-0.002c-0.107 0-0.213 0.053-0.267 0.16l-0.213 0.267-0.053 0.373v1.973l0.053 0.373c0 0.107 0.107 0.213 0.213 0.267 0.053 0.107 0.16 0.16 0.267 0.16 0.095 0.037 0.205 0.058 0.32 0.058s0.225-0.021 0.326-0.060l-0.006 0.002c0.107 0 0.213-0.053 0.267-0.16 0.165-0.156 0.267-0.376 0.267-0.62 0-0.007-0-0.014-0-0.021l0 0.001v-1.973l-0.053-0.373c0-0.107-0.107-0.213-0.213-0.267zM21.973 26.72c0 0.002 0 0.003 0 0.005 0 0.102-0.041 0.194-0.107 0.261l0-0c-0.068 0.069-0.162 0.112-0.267 0.112s-0.199-0.043-0.267-0.112l-0-0c-0.066-0.067-0.107-0.16-0.107-0.261 0-0.002 0-0.004 0-0.006v0-1.973c-0-0.002-0-0.003-0-0.005 0-0.102 0.041-0.194 0.107-0.261l-0 0c0.068-0.069 0.162-0.112 0.267-0.112s0.199 0.043 0.267 0.112l0 0c0.066 0.067 0.107 0.16 0.107 0.261 0 0.002 0 0.004-0 0.006v-0 1.973zM26.347 27.573v-3.68h-0.533l-0.64 1.973-0.693-1.973h-0.533v3.68h0.533v-2.24l0.533 1.6h0.267l0.533-1.6v2.24h0.533zM29.333 24.16l-0.32-0.213h-1.173v3.627h0.533v-1.44h0.267c0.16 0 0.32 0 0.48-0.107l0.267-0.267 0.16-0.32c0.028-0.144 0.044-0.31 0.044-0.48s-0.016-0.336-0.047-0.496l0.003 0.016-0.213-0.32zM29.067 25.227l-0.053 0.267-0.16 0.107c-0.040 0.011-0.086 0.017-0.133 0.017s-0.093-0.006-0.137-0.018l0.004 0.001h-0.213v-1.227h0.267l0.213 0.053 0.16 0.16v0.693zM31.787 23.893h-0.427l-0.8 3.68h0.533l0.16-0.8h0.693l0.16 0.8h0.533l-0.853-3.68zM31.307 26.293l0.267-1.333 0.267 1.333h-0.533zM35.2 26.133l-0.853-2.24h-0.48v3.68h0.533v-2.187l0.8 2.187h0.533v-3.68h-0.533v2.24zM38.4 23.893l-0.427 1.44-0.48-1.44h-0.533l0.747 2.133v1.547h0.533v-1.6l0.693-2.080h-0.533zM17.6 28.587h0.267v0.747h0.16v-0.747h0.267v-0.107h-0.693v0.107zM19.733 28.48l-0.32 0.853h0.16l0.053-0.213h0.373l0.053 0.213h0.213l-0.373-0.853h-0.16zM19.733 29.013l0.053-0.373 0.16 0.32h-0.267zM21.867 29.013h0.16v0.107l-0.213 0.053c-0.005 0-0.012 0.001-0.018 0.001-0.055 0-0.104-0.021-0.142-0.054l0 0-0.107-0.213c0-0.213 0.107-0.32 0.267-0.32 0.016-0.006 0.034-0.009 0.054-0.009 0.088 0 0.16 0.072 0.16 0.16 0 0.003-0 0.006-0 0.010l0-0h0.16c0-0.213-0.16-0.32-0.373-0.32l-0.32 0.107c-0.071 0.076-0.115 0.178-0.115 0.291 0 0.029 0.003 0.058 0.008 0.085l-0-0.003c0 0.107 0 0.213 0.107 0.32 0.075 0.067 0.175 0.108 0.284 0.108 0.013 0 0.025-0.001 0.038-0.002l-0.002 0c0.16 0 0.267 0 0.373-0.16v-0.32h-0.373v0.16zM24 28.48h-0.213v0.853h0.587v-0.16h-0.373v-0.693zM25.76 28.48h-0.16v0.853h0.16v-0.853zM27.52 29.013l-0.32-0.533h-0.16v0.853h0.16v-0.533l0.32 0.533h0.16v-0.853h-0.16v0.533zM29.12 28.96h0.427v-0.16h-0.427v-0.213h0.48v-0.107h-0.64v0.853h0.64v-0.16h-0.48v-0.213zM33.067 28.8h-0.373v-0.32h-0.16v0.853h0.16v-0.373h0.32v0.373h0.16v-0.853h-0.107v0.32zM34.667 28.96h0.373v-0.16h-0.373v-0.213h0.48v-0.107h-0.64v0.853h0.64v-0.16h-0.48v-0.213zM36.8 28.96c0.16 0 0.213-0.107 0.213-0.267 0.001-0.005 0.001-0.012 0.001-0.018 0-0.055-0.021-0.104-0.054-0.142l0 0c-0.065-0.035-0.142-0.055-0.224-0.055-0.015 0-0.030 0.001-0.045 0.002l0.002-0h-0.373v0.853h0.213v-0.373h0.107l0.053 0.107 0.213 0.267h0.213l-0.107-0.16-0.213-0.213zM36.64 28.8h-0.107v-0.213h0.267c0.059 0 0.107 0.048 0.107 0.107s-0.048 0.107-0.107 0.107v0c-0.024 0.004-0.052 0.006-0.080 0.006s-0.056-0.002-0.083-0.006l0.003 0zM38.453 28.96h0.427v-0.16h-0.427v-0.213h0.48v-0.107h-0.64v0.853h0.64v-0.16h-0.48v-0.213z"></path>
</symbol>
<symbol id="icon-logo3" viewBox="0 0 57 32">
<path fill="#afb1b8" style="fill: var(--color1, #afb1b8)" d="M19.413 26.187l0.027 0.005 0.021 0.011 0.117 0.112c-0.091 0.091-0.203 0.16-0.325 0.213-0.149 0.053-0.309 0.080-0.464 0.075-0.149 0-0.299-0.021-0.437-0.069-0.246-0.085-0.439-0.268-0.537-0.501l-0.002-0.006c-0.050-0.117-0.080-0.254-0.080-0.397s0.029-0.28 0.082-0.404l-0.003 0.007c0.053-0.112 0.128-0.219 0.229-0.309 0.096-0.085 0.213-0.155 0.347-0.197 0.134-0.048 0.289-0.076 0.451-0.076 0.15 0 0.294 0.024 0.428 0.068l-0.010-0.003c0.112 0.043 0.219 0.107 0.309 0.181l-0.096 0.117c-0.007 0.009-0.016 0.016-0.026 0.021l-0 0c-0.010 0.007-0.023 0.011-0.037 0.011-0 0-0 0-0 0h0c-0.016-0.002-0.031-0.008-0.043-0.016l0 0-0.053-0.032-0.069-0.037c-0.107-0.054-0.234-0.086-0.368-0.086-0.013 0-0.026 0-0.040 0.001l0.002-0c-0.107 0-0.219 0.016-0.32 0.053-0.19 0.065-0.339 0.206-0.414 0.385l-0.002 0.005c-0.040 0.091-0.063 0.197-0.064 0.309v0c0 0.107 0.021 0.219 0.059 0.32 0.073 0.181 0.219 0.32 0.401 0.383l0.005 0.001c0.096 0.032 0.197 0.053 0.299 0.053l0.176-0.011c0.148-0.016 0.28-0.076 0.385-0.166l-0.001 0.001c0.014-0.012 0.033-0.020 0.053-0.021h0zM22.773 25.627c0 0.139-0.021 0.267-0.075 0.395-0.053 0.112-0.123 0.213-0.219 0.304-0.101 0.091-0.213 0.16-0.347 0.203-0.283 0.096-0.597 0.096-0.885 0-0.132-0.047-0.245-0.116-0.342-0.203l0.001 0.001c-0.092-0.085-0.166-0.188-0.216-0.304l-0.002-0.006c-0.107-0.251-0.107-0.533 0-0.784 0.053-0.117 0.123-0.219 0.219-0.309 0.101-0.085 0.213-0.149 0.341-0.197 0.132-0.046 0.284-0.072 0.443-0.072s0.311 0.026 0.452 0.075l-0.010-0.003c0.128 0.048 0.245 0.117 0.347 0.203 0.181 0.166 0.294 0.404 0.294 0.668 0 0.011-0 0.021-0.001 0.032l0-0.002zM22.469 25.627c0-0.107-0.016-0.213-0.053-0.315-0.071-0.181-0.215-0.32-0.395-0.383l-0.005-0.001c-0.096-0.032-0.206-0.051-0.32-0.051s-0.224 0.019-0.327 0.053l0.007-0.002c-0.097 0.033-0.181 0.084-0.251 0.15l0-0c-0.069 0.064-0.123 0.142-0.158 0.23l-0.002 0.004c-0.069 0.208-0.069 0.427 0 0.635 0.071 0.183 0.218 0.323 0.401 0.383l0.005 0.001c0.208 0.064 0.437 0.064 0.64 0 0.096-0.037 0.181-0.085 0.251-0.149 0.069-0.069 0.123-0.149 0.155-0.235 0.037-0.107 0.053-0.213 0.053-0.32zM25.067 25.957l0.032 0.075 0.032-0.075 0.037-0.069 0.747-1.173c0.011-0.016 0.027-0.032 0.037-0.032 0.019-0.007 0.041-0.011 0.064-0.011v0h0.219v1.909h-0.261v-1.525l-0.747 1.189c-0.010 0.018-0.025 0.033-0.042 0.042l-0.001 0c-0.018 0.010-0.040 0.016-0.063 0.016-0 0-0 0-0.001 0h-0.043c-0.001 0-0.001 0-0.002 0-0.023 0-0.044-0.006-0.063-0.016l0.001 0c-0.018-0.010-0.033-0.025-0.042-0.042l-0-0.001-0.768-1.2v1.536h-0.256v-1.909h0.224c0.016 0 0.037 0 0.059 0.011 0.016 0.005 0.032 0.016 0.043 0.032l0.757 1.173 0.037 0.069zM27.861 25.867v0.715h-0.288v-1.909h0.645c0.123 0 0.245 0.016 0.363 0.043 0.096 0.021 0.181 0.064 0.256 0.117 0.064 0.053 0.117 0.117 0.149 0.187 0.032 0.080 0.053 0.16 0.048 0.245 0 0.002 0 0.003 0 0.005 0 0.174-0.083 0.328-0.212 0.426l-0.001 0.001c-0.075 0.059-0.16 0.107-0.256 0.128-0.102 0.030-0.219 0.048-0.34 0.048-0.004 0-0.008-0-0.013-0h0.001l-0.352-0.005zM27.861 25.659h0.352c0.080 0 0.155-0.005 0.229-0.027 0.061-0.020 0.115-0.049 0.161-0.086l-0.001 0.001c0.082-0.068 0.133-0.17 0.133-0.284 0-0.002 0-0.003-0-0.005v0c0-0.006 0.001-0.013 0.001-0.020 0-0.047-0.010-0.091-0.028-0.131l0.001 0.002c-0.026-0.053-0.062-0.098-0.106-0.133l-0.001-0.001c-0.107-0.075-0.245-0.107-0.389-0.101h-0.352v0.784zM31.771 26.581h-0.229c-0.002 0-0.005 0-0.007 0-0.021 0-0.041-0.006-0.057-0.017l0 0c-0.016-0.011-0.028-0.025-0.037-0.042l-0-0.001-0.197-0.464h-0.992l-0.208 0.464c-0.017 0.038-0.054 0.064-0.098 0.064-0.003 0-0.006-0-0.009-0l0 0h-0.224l0.875-1.915h0.304l0.88 1.909zM30.331 25.872h0.821l-0.347-0.773c-0.023-0.050-0.045-0.11-0.062-0.172l-0.002-0.009-0.032 0.101-0.032 0.080-0.347 0.773zM33.029 24.683l0.043 0.032 1.275 1.44v-1.483h0.256v1.909h-0.144c-0.021 0-0.043 0-0.059-0.011-0.019-0.010-0.035-0.022-0.048-0.037l-0-0-1.269-1.44v1.488h-0.261v-1.909h0.16c0.011 0 0.032 0 0.048 0.011zM36.747 25.824v0.757h-0.288v-0.757l-0.805-1.152h0.261c0.002-0 0.005-0 0.007-0 0.021 0 0.041 0.006 0.057 0.017l-0-0 0.037 0.043 0.501 0.747c0.032 0.047 0.062 0.101 0.088 0.158l0.003 0.007 0.037-0.080 0.053-0.085 0.491-0.747c0.011-0.016 0.023-0.030 0.037-0.042l0-0c0.016-0.013 0.037-0.021 0.060-0.021 0.001 0 0.002 0 0.004 0h0.266l-0.811 1.157zM24.923 21.472l0.384 0.032c1.947-0.747 3.565-1.984 4.754-3.562l0.020-0.027c1.060-1.413 1.697-3.195 1.697-5.127 0-0.054-0-0.107-0.001-0.161l0 0.008-2.165-1.877c0.443 1.989 0.235 4.043-0.592 5.936-0.907 1.983-2.311 3.605-4.054 4.753l-0.042 0.026z"></path>
<path fill="#afb1b8" style="fill: var(--color1, #afb1b8)" d="M24.149 21.387l0.059 0.005c1.973-1.227 3.483-2.939 4.32-4.923 0.478-1.079 0.756-2.337 0.756-3.66 0-0.898-0.128-1.765-0.367-2.586l0.016 0.065-3.083-2.672c0.96 1.642 1.527 3.616 1.527 5.722 0 0.483-0.030 0.959-0.088 1.427l0.006-0.056c-0.351 2.604-1.485 4.894-3.153 6.679l0.006-0.007zM34.597 14.843c-0.599 2.176-1.882 3.994-3.6 5.256l-0.027 0.019c-0.533 0.405-1.109 0.763-1.717 1.072 1.488-0.379 2.859-1.051 4-1.963 1.103-0.874 1.982-1.982 2.569-3.252l0.023-0.055-1.248-1.077z"></path>
<path fill="#afb1b8" style="fill: var(--color1, #afb1b8)" d="M34.107 14.539l-1.781-1.547c-0.047 1.877-0.666 3.6-1.687 5.013l0.018-0.026c-1.113 1.534-2.58 2.746-4.284 3.529l-0.068 0.028h0.011c0.4 0 0.8-0.021 1.195-0.059 1.692-0.597 3.134-1.537 4.301-2.744l0.003-0.003c1.093-1.13 1.895-2.549 2.281-4.13l0.013-0.062zM24.411 6.485l-2.123-1.845c-1.894 0.624-3.485 1.738-4.674 3.193l-0.014 0.018c-1.089 1.342-1.754 3.066-1.771 4.946l-0 0.004c0.028 2.083 0.84 3.971 2.154 5.386l-0.005-0.005c1.429 1.538 3.31 2.637 5.431 3.087l0.068 0.012c1.84-1.897 3.041-4.423 3.251-7.225l0.002-0.039c0.012-0.192 0.018-0.416 0.018-0.642 0-2.604-0.88-5.003-2.358-6.915l0.019 0.026zM39.008 14.256c-0.005-2.32-1.067-4.533-2.955-6.176-1.884-1.596-4.342-2.566-7.027-2.566-0.027 0-0.054 0-0.081 0l0.004-0c-1.232 0-2.453 0.197-3.605 0.587l12.992 11.28c0.423-0.919 0.67-1.993 0.672-3.125v-0.001z"></path>
</symbol>
<symbol id="icon-logo4" viewBox="0 0 57 32">
<path fill="#2196f3" style="fill: var(--color2, #2196f3)" d="M12.88 11.253c-1.28 0-2.32 0.923-2.32 2.059 0 1.141 1.040 2.059 2.315 2.059 1.28 0 2.32-0.917 2.32-2.059 0-1.136-1.040-2.059-2.315-2.059zM29.973 10.597c-0.005-1.579-0.715-3.093-1.973-4.213-1.248-1.084-2.889-1.744-4.684-1.744-0.016 0-0.033 0-0.049 0h0.003c-1.776 0-3.483 0.629-4.736 1.749-1.191 1.025-1.948 2.526-1.973 4.204l-0 0.004v8.704s13.413-1.328 13.413-8.704zM5.867 22.16c0 1.099 0.496 2.149 1.371 2.928 0.869 0.756 2.013 1.216 3.263 1.216 0.010 0 0.019-0 0.029-0h-0.001c1.237 0 2.421-0.437 3.296-1.216 0.827-0.714 1.353-1.758 1.371-2.925l0-0.003v-6.053s-9.328 0.923-9.328 6.053zM10.528 23.243c-0.24 0-0.48-0.059-0.677-0.181-0.195-0.114-0.348-0.28-0.445-0.479l-0.003-0.007c-0.059-0.122-0.093-0.265-0.093-0.416 0-0.076 0.009-0.149 0.025-0.22l-0.001 0.007c0.048-0.213 0.16-0.4 0.336-0.555 0.17-0.15 0.382-0.255 0.616-0.297l0.008-0.001c0.235-0.037 0.48-0.016 0.704 0.064s0.416 0.219 0.549 0.4c0.127 0.166 0.204 0.377 0.204 0.606 0 0.306-0.137 0.579-0.352 0.763l-0.001 0.001c-0.117 0.107-0.251 0.181-0.4 0.24-0.149 0.053-0.304 0.080-0.469 0.080zM19.957 22.645h-0.901v0.933h-0.469v-2.277h1.483v0.379h-1.013v0.587h0.901v0.379zM22.208 22.491c0 0.224-0.037 0.421-0.117 0.587-0.141 0.317-0.453 0.534-0.816 0.534-0.011 0-0.022-0-0.034-0.001l0.002 0c-0.009 0-0.021 0.001-0.032 0.001-0.362 0-0.674-0.212-0.819-0.518l-0.002-0.006c-0.074-0.161-0.118-0.35-0.118-0.549 0-0.013 0-0.026 0.001-0.039l-0 0.002v-0.101c0-0.229 0.037-0.427 0.123-0.592 0.146-0.317 0.461-0.534 0.826-0.534 0.008 0 0.015 0 0.023 0l-0.001-0c0.187 0 0.357 0.048 0.501 0.139 0.149 0.091 0.267 0.224 0.341 0.395 0.085 0.165 0.123 0.363 0.123 0.587v0.107zM21.733 22.384c0-0.235-0.043-0.416-0.128-0.539-0.076-0.113-0.203-0.187-0.347-0.187-0.005 0-0.011 0-0.016 0l0.001-0c-0.16 0-0.283 0.059-0.368 0.181s-0.128 0.304-0.128 0.539v0.112c0 0.235 0.043 0.411 0.128 0.539s0.213 0.192 0.373 0.192c0.155 0 0.272-0.059 0.357-0.181s0.128-0.304 0.128-0.539v-0.112zM23.728 22.981c0-0.091-0.032-0.16-0.091-0.203-0.098-0.064-0.212-0.115-0.333-0.147l-0.008-0.002c-0.16-0.053-0.288-0.107-0.384-0.16-0.256-0.139-0.389-0.325-0.389-0.56 0-0.128 0.037-0.235 0.107-0.331s0.165-0.171 0.299-0.229c0.128-0.053 0.272-0.080 0.437-0.080 0.16 0 0.304 0.032 0.432 0.091 0.128 0.053 0.224 0.139 0.299 0.251 0.069 0.107 0.107 0.229 0.107 0.363h-0.469c0-0.107-0.037-0.187-0.101-0.24-0.069-0.057-0.157-0.091-0.254-0.091-0.008 0-0.016 0-0.024 0.001l0.001-0c-0.007-0-0.016-0.001-0.025-0.001-0.091 0-0.174 0.028-0.244 0.076l0.001-0.001c-0.058 0.042-0.096 0.11-0.096 0.187 0 0.002 0 0.004 0 0.006v-0c0 0.075 0.037 0.133 0.112 0.187 0.075 0.048 0.187 0.096 0.331 0.139 0.267 0.080 0.459 0.181 0.587 0.299 0.117 0.117 0.176 0.267 0.176 0.443 0 0.197-0.069 0.352-0.219 0.464s-0.352 0.171-0.603 0.171c-0.004 0-0.010 0-0.015 0-0.168 0-0.328-0.035-0.473-0.099l0.008 0.003c-0.261-0.098-0.443-0.346-0.443-0.635 0-0.005 0-0.011 0-0.016v0.001h0.469c0 0.251 0.155 0.373 0.453 0.373 0.107 0 0.197-0.021 0.261-0.064 0.059-0.053 0.091-0.112 0.091-0.192zM26.235 21.68h-0.699v1.899h-0.469v-1.899h-0.693v-0.373h1.856v0.373zM27.867 22.587h-0.896v0.613h1.056v0.373h-1.525v-2.272h1.52v0.379h-1.051v0.544h0.896v0.368zM29.147 22.747h-0.373v0.832h-0.475v-2.277h0.848c0.267 0 0.475 0.059 0.619 0.181 0.149 0.117 0.219 0.288 0.219 0.507 0 0.16-0.032 0.283-0.101 0.389-0.064 0.107-0.165 0.187-0.304 0.245l0.491 0.933v0.021h-0.501l-0.427-0.832zM28.773 22.363h0.373c0.117 0 0.213-0.027 0.272-0.085 0.060-0.058 0.097-0.139 0.097-0.229 0-0.008-0-0.015-0.001-0.022l0 0.001c0-0.107-0.027-0.192-0.091-0.251-0.059-0.064-0.155-0.096-0.277-0.096h-0.373v0.683zM31.611 22.773v0.8h-0.469v-2.272h0.885c0.171 0 0.32 0.032 0.453 0.096 0.128 0.059 0.229 0.149 0.299 0.267 0.069 0.112 0.107 0.245 0.107 0.389 0 0.224-0.080 0.4-0.235 0.533-0.149 0.123-0.363 0.187-0.629 0.187h-0.411zM31.611 22.4h0.416c0.123 0 0.219-0.032 0.283-0.091 0.069-0.059 0.101-0.144 0.101-0.251 0-0.003 0-0.007 0-0.011 0-0.099-0.039-0.189-0.102-0.256l0 0c-0.066-0.066-0.158-0.107-0.259-0.107-0.003 0-0.005 0-0.008 0h-0.432v0.709zM34.576 22.592h-0.901v0.608h1.056v0.373h-1.525v-2.272h1.52v0.379h-1.051v0.544h0.901v0.368zM36.752 21.685h-0.699v1.893h-0.469v-1.899h-0.688v-0.373h1.856v0.373zM38.389 22.592h-0.907v0.608h1.061v0.373h-1.531v-2.272h1.52v0.379h-1.040v0.544h0.901v0.368zM39.659 22.747h-0.373v0.832h-0.469v-2.277h0.848c0.267 0 0.48 0.059 0.624 0.181 0.144 0.117 0.213 0.288 0.213 0.507 0 0.16-0.032 0.283-0.096 0.389-0.069 0.107-0.171 0.187-0.309 0.245l0.496 0.933v0.021h-0.507l-0.427-0.832zM39.285 22.363h0.379c0.117 0 0.213-0.027 0.277-0.085 0.060-0.058 0.097-0.139 0.097-0.229 0-0.008-0-0.015-0.001-0.022l0 0.001c0-0.107-0.032-0.192-0.096-0.251-0.053-0.064-0.149-0.096-0.277-0.096h-0.373v0.683zM42.043 22.981c0-0.091-0.032-0.16-0.096-0.203-0.097-0.063-0.208-0.114-0.328-0.147l-0.008-0.002c-0.16-0.053-0.293-0.107-0.384-0.16-0.261-0.139-0.389-0.325-0.389-0.56 0-0.128 0.032-0.235 0.107-0.331 0.064-0.096 0.165-0.171 0.293-0.229 0.133-0.053 0.277-0.080 0.437-0.080s0.309 0.032 0.437 0.091c0.128 0.053 0.224 0.139 0.293 0.251 0.069 0.107 0.107 0.229 0.107 0.363h-0.469c0-0.107-0.032-0.187-0.096-0.24-0.069-0.057-0.157-0.091-0.254-0.091-0.008 0-0.016 0-0.024 0.001l0.001-0c-0.007-0-0.016-0.001-0.025-0.001-0.091 0-0.175 0.028-0.244 0.076l0.001-0.001c-0.058 0.042-0.096 0.11-0.096 0.187 0 0.002 0 0.004 0 0.006v-0c0 0.075 0.037 0.133 0.107 0.187 0.080 0.048 0.187 0.096 0.336 0.139 0.267 0.080 0.459 0.181 0.581 0.299s0.181 0.267 0.181 0.443c0 0.197-0.075 0.352-0.224 0.464s-0.347 0.171-0.603 0.171c-0.004 0-0.010 0-0.015 0-0.168 0-0.328-0.035-0.473-0.099l0.008 0.003c-0.261-0.098-0.443-0.346-0.443-0.635 0-0.005 0-0.011 0-0.016v0.001h0.475c0 0.251 0.149 0.373 0.448 0.373 0.112 0 0.203-0.021 0.267-0.064 0.059-0.053 0.091-0.112 0.091-0.192z"></path>
</symbol>
<symbol id="icon-logo5" viewBox="0 0 57 32">
<path fill="#afb1b8" style="fill: var(--color1, #afb1b8)" d="M14.272 23.861c0.128 0.144 0.197 0.331 0.192 0.517 0.011 0.123-0.016 0.245-0.069 0.363-0.053 0.112-0.128 0.213-0.229 0.299-0.256 0.171-0.565 0.256-0.885 0.24h-1.547v-3.307h1.515c0.025-0.002 0.054-0.003 0.083-0.003 0.283 0 0.545 0.085 0.765 0.23l-0.005-0.003c0.096 0.075 0.176 0.171 0.224 0.277 0.053 0.107 0.075 0.224 0.069 0.341 0.011 0.181-0.053 0.357-0.176 0.501-0.117 0.133-0.277 0.224-0.459 0.261 0.203 0.032 0.389 0.133 0.523 0.283zM12.459 23.36h0.64c0.149 0.011 0.299-0.027 0.416-0.107 0.053-0.043 0.085-0.091 0.107-0.149 0.027-0.053 0.037-0.117 0.032-0.176 0.001-0.010 0.002-0.022 0.002-0.034 0-0.051-0.010-0.1-0.029-0.145l0.001 0.002c-0.025-0.057-0.062-0.105-0.106-0.144l-0.001-0c-0.105-0.072-0.234-0.114-0.373-0.114-0.019 0-0.038 0.001-0.056 0.002l0.002-0h-0.64v0.864zM13.579 24.629c0.053-0.043 0.091-0.096 0.117-0.155 0.027-0.053 0.037-0.123 0.037-0.181 0-0.006 0.001-0.013 0.001-0.020 0-0.060-0.014-0.118-0.039-0.169l0.001 0.002c-0.029-0.062-0.071-0.114-0.122-0.154l-0.001-0.001c-0.111-0.074-0.247-0.119-0.394-0.119-0.015 0-0.030 0-0.045 0.001l0.002-0h-0.683v0.907h0.693c0.149 0.011 0.304-0.032 0.427-0.117zM17.371 25.28l-0.837-1.291h-0.32v1.291h-0.725v-3.307h1.376c0.029-0.002 0.064-0.003 0.099-0.003 0.325 0 0.624 0.107 0.865 0.289l-0.004-0.003c0.203 0.182 0.33 0.446 0.33 0.739 0 0.239-0.084 0.457-0.224 0.628l0.001-0.002c-0.176 0.181-0.411 0.299-0.661 0.336l0.896 1.323h-0.789zM16.208 23.536h0.597c0.411 0 0.619-0.16 0.619-0.496 0-0.006 0-0.014 0-0.021 0-0.066-0.014-0.128-0.039-0.184l0.001 0.003c-0.028-0.067-0.068-0.124-0.117-0.17l-0-0c-0.112-0.085-0.254-0.136-0.408-0.136-0.020 0-0.039 0.001-0.058 0.002l0.003-0h-0.603l0.005 1.003zM21.339 24.613h-1.445l-0.256 0.667h-0.763l1.333-3.269h0.821l1.323 3.269h-0.763l-0.256-0.667zM21.147 24.112l-0.533-1.392-0.528 1.392h1.061zM26.304 25.28h-0.72l-1.616-2.245v2.24h-0.715v-3.296h0.72l1.616 2.256v-2.256h0.72v3.301zM30.416 24.485c-0.149 0.251-0.373 0.453-0.651 0.587-0.315 0.144-0.661 0.213-1.013 0.208h-1.28v-3.307h1.28c0.352-0.005 0.699 0.064 1.013 0.208 0.277 0.128 0.501 0.325 0.651 0.576 0.14 0.249 0.223 0.547 0.223 0.864s-0.083 0.615-0.227 0.873l0.005-0.009zM29.595 24.411c0.203-0.219 0.32-0.501 0.32-0.789s-0.117-0.571-0.32-0.789c-0.223-0.175-0.507-0.28-0.816-0.28-0.032 0-0.063 0.001-0.095 0.003l0.004-0h-0.496v2.133h0.501c0.325 0.021 0.651-0.080 0.901-0.277zM21.792 3.611s9.296 3.211 9.099 7.867v7.867s-9.291-3.216-9.099-7.867v-7.867zM39.179 17.504c1.686-1.070 3.696-1.784 5.855-1.99l0.054-0.004v-2.464c-2.445 0.858-4.467 2.411-5.884 4.421l-0.025 0.038z"></path>
<path fill="#afb1b8" style="fill: var(--color1, #afb1b8)" d="M38.123 18.24c1.526-2.691 3.961-4.717 6.878-5.682l0.087-0.025v-7.109s-13.248 4.592-12.965 11.216v11.2s0.587-0.203 1.52-0.587c0-0.363 0-0.72 0.043-1.083 0.331-3.247 1.986-6.053 4.41-7.905l0.027-0.020z"></path>
<path fill="#afb1b8" style="fill: var(--color1, #afb1b8)" d="M36.864 22.405c0.069-0.773 0.224-1.547 0.464-2.293-1.669 1.773-2.721 4.143-2.805 6.757l-0 0.016c0.752-0.336 1.627-0.747 2.549-1.232-0.235-1.067-0.304-2.16-0.208-3.248zM37.387 22.448c-0.085 0.981-0.027 1.973 0.165 2.933 3.621-1.979 7.685-5.040 7.531-8.747v-0.32c-2.658 0.265-5.026 1.334-6.901 2.957l0.016-0.013c-0.415 0.933-0.701 2.015-0.803 3.15l-0.003 0.039z"></path>
</symbol>
<symbol id="icon-mail" viewBox="0 0 43 32">
<path   d="M38.667 0h-34.667c-2.213 0-4 1.787-4 4v24c0 2.213 1.787 4 4 4h34.667c2.213 0 4-1.787 4-4v-24c0-2.213-1.787-4-4-4zM38.667 2.667c0.003-0 0.007-0 0.011-0 0.189 0 0.368 0.039 0.531 0.11l-0.009-0.003-17.867 15.467-17.867-15.467c0.154-0.067 0.334-0.107 0.523-0.107 0.004 0 0.007 0 0.011 0h34.666zM38.667 29.333h-34.667c-0.736 0-1.333-0.597-1.333-1.333v0-22.4l17.787 15.413c0.234 0.206 0.542 0.332 0.88 0.332s0.646-0.126 0.881-0.333l-0.001 0.001 17.787-15.413v22.4c0 0.736-0.597 1.333-1.333 1.333v0z"></path>
</symbol>
<symbol id="icon-phone" viewBox="0 0 20 32">
<path   d="M17 0h-14c-1.66 0-3 1.34-3 3v26c0 1.66 1.34 3 3 3h14c1.66 0 3-1.34 3-3v-26c0-1.66-1.34-3-3-3zM3 2h14c0.56 0 1 0.44 1 1v21h-16v-21c0-0.56 0.44-1 1-1zM17 30h-14c-0.552 0-1-0.448-1-1v0-3h16v3c0 0.552-0.448 1-1 1v0z"></path>
<path   d="M4.7 27.48c0.4 0.36 0.4 0.96 0 1.32-0.186 0.164-0.431 0.264-0.7 0.264s-0.514-0.1-0.701-0.265l0.001 0.001c-0.177-0.165-0.288-0.399-0.288-0.66s0.111-0.495 0.288-0.659l0.001-0.001c0.4-0.36 1-0.36 1.4 0z"></path>
</symbol>
<symbol id="icon-twitter" viewBox="0 0 32 32">
<path d="M32 6.080c-1.12 0.48-2.4 0.8-3.84 0.96 1.347-0.785 2.365-2.010 2.867-3.475l0.013-0.045c-1.28 0.8-2.56 1.28-4.16 1.6-1.201-1.288-2.908-2.091-4.803-2.091-3.623 0-6.56 2.937-6.56 6.56 0 0.515 0.059 1.015 0.171 1.496l-0.009-0.044c-5.44-0.32-10.24-2.88-13.44-6.88-0.562 0.947-0.894 2.088-0.894 3.307 0 2.289 1.173 4.305 2.95 5.478l0.025 0.015c-1.117-0.011-2.163-0.306-3.072-0.817l0.032 0.017c0 3.2 2.24 5.92 5.28 6.4-0.553 0.173-1.188 0.272-1.847 0.272-0.422 0-0.835-0.041-1.234-0.119l0.040 0.007c0.96 2.72 3.2 4.64 6.24 4.64-2.212 1.759-5.047 2.822-8.129 2.822-0.575 0-1.141-0.037-1.697-0.109l0.066 0.007c2.88 1.92 6.4 2.72 10.080 2.72 0.003 0 0.007 0 0.011 0 10.25 0 18.56-8.31 18.56-18.56 0-0.225-0.004-0.449-0.012-0.672l0.001 0.032c1.44-0.96 2.4-2.080 3.36-3.36z"></path>
</symbol>
</defs>
</svg>
