<svg aria-hidden="true" style="position: absolute; width: 0; height: 0; overflow: hidden;" version="1.1" xmlns="http://www.w3.org/2000/svg" xmlns:xlink="http://www.w3.org/1999/xlink">
<defs>
<symbol id="icon-group1" viewBox="0 0 28 32">
<path fill="#afb1b8" style="fill: var(--color1, #afb1b8)" d="M4.085 0l4.766 4.494h-8.851v21.923h23.149v-8.374l4.766 4.494v-22.536h-23.83zM22.945 17.498l-13.549-12.732h13.549v12.8zM18.723 23.217h-15.047v-14.706h1.021v13.685h14.026v1.021zM7.217 29.345l-0.545 1.157-0.545-1.226h-0.477l0.817 1.498v0.953h0.409v-0.953l0.817-1.498h-0.477zM7.898 31.796l0.204-0.613h0.953l0.204 0.613h0.409l-0.817-2.519h-0.409l-0.953 2.519h0.409zM8.579 29.889l0.34 0.953h-0.681l0.34-0.953zM10.826 30.774l-0.136 0.34c0 0.204 0.068 0.34 0.272 0.477 0.136 0.136 0.272 0.204 0.545 0.204 0.204 0 0.409 0 0.613-0.204l0.136 0.204h0.477l-0.34-0.477c0.136-0.136 0.204-0.409 0.204-0.681h-0.34c0 0.136 0 0.272-0.136 0.409l-0.477-0.545 0.204-0.136 0.204-0.204c0.056-0.084 0.089-0.187 0.089-0.298 0-0.149-0.060-0.284-0.157-0.383l0 0c-0.104-0.085-0.239-0.137-0.386-0.137-0.008 0-0.016 0-0.024 0l0.001-0c-0.019-0.002-0.042-0.003-0.064-0.003-0.156 0-0.299 0.052-0.414 0.14l0.002-0.001c-0.136 0.136-0.204 0.272-0.204 0.477l0.068 0.204 0.204 0.34c-0.131 0.075-0.244 0.166-0.339 0.271l-0.001 0.001zM11.915 31.319c-0.112 0.085-0.254 0.136-0.409 0.136v0l-0.272-0.068c-0.083-0.063-0.136-0.161-0.136-0.272v0c0-0.136 0.068-0.272 0.204-0.34h0.068l0.545 0.545zM11.438 30.298l-0.136-0.409v-0.204h0.477l0.068 0.204-0.068 0.204-0.272 0.204zM15.387 31.591c0.204-0.136 0.272-0.34 0.272-0.613h-0.409c0 0.204 0 0.272-0.136 0.34-0.068 0.136-0.204 0.136-0.409 0.136-0.005 0-0.011 0-0.017 0-0.161 0-0.304-0.080-0.39-0.203l-0.001-0.002-0.136-0.613v-0.204c0-0.272 0.068-0.477 0.204-0.613 0.068-0.136 0.204-0.136 0.409-0.136l0.34 0.068 0.136 0.409h0.409c0-0.272-0.068-0.477-0.272-0.681l-0.681-0.136c-0.136 0-0.34 0-0.477 0.136l-0.34 0.34c-0.087 0.175-0.139 0.381-0.139 0.599 0 0.029 0.001 0.058 0.003 0.086l-0-0.004v0.204c0 0.204 0 0.409 0.136 0.545 0.068 0.204 0.204 0.34 0.34 0.409l0.477 0.136c0.34 0 0.545-0.068 0.681-0.204zM17.906 31.251l0.068-0.681v-0.068c0-0.272 0-0.477-0.136-0.681-0.166-0.285-0.469-0.473-0.817-0.477h-0c-0.204 0-0.409 0-0.545 0.136-0.136 0.068-0.272 0.204-0.34 0.409-0.136 0.136-0.136 0.34-0.136 0.613v0.136c0 0.204 0 0.409 0.136 0.613 0 0.204 0.204 0.34 0.34 0.409l0.545 0.136c0.204 0 0.34 0 0.477-0.136 0.204-0.068 0.272-0.272 0.409-0.409zM17.43 29.889l0.136 0.613v0.136c0 0.272 0 0.477-0.136 0.613l-0.409 0.204c-0.024 0.004-0.052 0.007-0.081 0.007-0.164 0-0.309-0.083-0.395-0.209l-0.001-0.002-0.136-0.681v-0.068c0-0.272 0-0.477 0.136-0.681l0.477-0.136c0.136 0 0.272 0 0.409 0.204z"></path>
</symbol>
<symbol id="icon-group2" viewBox="0 0 25 32">
<path fill="#afb1b8" style="fill: var(--color1, #afb1b8)" d="M10.523 1.846h-0.677c-0.119-0.003-0.259-0.005-0.4-0.005s-0.281 0.002-0.421 0.006l0.021-0c-2.277 0-4.492 0.615-6.523 1.538l-0.308 0.123v13.723l0.615-0.246c2.011-0.683 4.33-1.106 6.739-1.169l0.031-0.001v1.846h-0.677c-3.131 0.148-6.034 0.997-8.597 2.391l0.105-0.052v-17.477c2.642-1.58 5.826-2.516 9.229-2.523h0.31c1.163 0.052 2.26 0.206 3.322 0.455l-0.122-0.024v1.723c-0.738-0.185-1.477-0.246-2.215-0.308h-0.492zM13.6 3.631h1.231c3.41-0.009 6.611-0.898 9.391-2.45l-0.098 0.050v17.231c-2.622 1.533-5.773 2.438-9.136 2.438-1.253 0-2.477-0.126-3.659-0.365l0.118 0.020v-17.231c0.642 0.149 1.4 0.259 2.176 0.306l0.040 0.002zM22.338 3.754l-0.615 0.185-1.723 0.554c-1.553 0.409-3.337 0.644-5.175 0.644-0.388 0-0.773-0.010-1.155-0.031l0.053 0.002h-0.492v13.969h0.369l1.231 0.123c2.669-0.005 5.188-0.641 7.418-1.766l-0.095 0.043 0.246-0.123v-13.6z"></path>
<path fill="#afb1b8" style="fill: var(--color1, #afb1b8)" d="M1.662 25.969c-0.161-0.15-0.377-0.243-0.615-0.246h-0.431c-0.362 0.13-0.617 0.471-0.617 0.871 0 0.018 0.001 0.037 0.002 0.055l-0-0.003v2.338c0 0.185 0 0.369 0.123 0.492 0 0.123 0.123 0.246 0.185 0.308l0.369 0.185h0.677c0.364-0.15 0.615-0.502 0.615-0.913 0-0.004-0-0.007-0-0.011v0.001-0.246h-0.615v0.369l-0.246 0.246h-0.123c-0.017 0.003-0.037 0.005-0.058 0.005-0.103 0-0.194-0.050-0.249-0.128l-0.001-0.001-0.062-0.369v-2.462c0.048-0.11 0.157-0.186 0.282-0.186 0.009 0 0.018 0 0.026 0.001l-0.001-0c0.111 0.014 0.203 0.085 0.245 0.183l0.001 0.002c0.123 0.062 0.123 0.185 0.123 0.308v0.185h0.615v-0.246c-0.008-0.287-0.123-0.546-0.308-0.739l0 0zM5.292 25.969c-0.188-0.151-0.429-0.243-0.692-0.243-0.127 0-0.248 0.021-0.362 0.060l0.008-0.002c-0.123 0-0.246 0.062-0.308 0.185l-0.246 0.308-0.062 0.431v2.277l0.062 0.431c0 0.123 0.123 0.246 0.246 0.308 0.062 0.123 0.185 0.185 0.308 0.185 0.11 0.043 0.237 0.067 0.369 0.067s0.26-0.025 0.376-0.070l-0.007 0.002c0.123 0 0.246-0.062 0.308-0.185 0.19-0.18 0.308-0.434 0.308-0.715 0-0.008-0-0.016-0-0.024l0 0.001v-2.277l-0.062-0.431c0-0.123-0.123-0.246-0.246-0.308zM5.046 28.923c0 0.002 0 0.004 0 0.006 0 0.117-0.047 0.224-0.123 0.302l0-0c-0.078 0.080-0.187 0.129-0.308 0.129s-0.229-0.049-0.308-0.129l-0-0c-0.076-0.078-0.123-0.184-0.123-0.302 0-0.002 0-0.004 0-0.006v0-2.277c0.025-0.074 0.068-0.136 0.123-0.184l0-0c0.078-0.080 0.187-0.129 0.308-0.129s0.229 0.049 0.308 0.129l0 0c0.076 0.078 0.123 0.184 0.123 0.302 0 0.002-0 0.004-0 0.006v-0 2.277zM10.092 29.969v-4.246h-0.615l-0.738 2.277-0.8-2.277h-0.615v4.246h0.615v-2.585l0.615 1.846h0.308l0.615-1.846v2.585h0.615zM13.538 26.031l-0.369-0.246h-1.354v4.185h0.615v-1.662h0.308c0.185 0 0.369 0 0.554-0.123l0.308-0.308 0.185-0.369c0.033-0.167 0.051-0.358 0.051-0.554s-0.019-0.387-0.054-0.573l0.003 0.019-0.246-0.369zM13.231 27.262l-0.062 0.308-0.185 0.123c-0.046 0.012-0.099 0.020-0.154 0.020s-0.108-0.007-0.158-0.020l0.004 0.001h-0.246v-1.415h0.308l0.246 0.062 0.185 0.185v0.8zM16.369 25.723h-0.492l-0.923 4.246h0.615l0.185-0.923h0.8l0.185 0.923h0.615l-0.985-4.246zM15.815 28.492l0.308-1.538 0.308 1.538h-0.615zM20.308 28.308l-0.985-2.585h-0.554v4.246h0.615v-2.523l0.923 2.523h0.615v-4.246h-0.615v2.585zM24 25.723l-0.492 1.662-0.554-1.662h-0.615l0.862 2.462v1.785h0.615v-1.846l0.8-2.4h-0.615zM0 31.138h0.308v0.862h0.185v-0.862h0.308v-0.123h-0.8v0.123zM2.462 31.015l-0.369 0.985h0.185l0.062-0.246h0.431l0.062 0.246h0.246l-0.431-0.985h-0.185zM2.462 31.631l0.062-0.431 0.185 0.369h-0.308zM4.923 31.631h0.185v0.123l-0.246 0.062c-0.006 0.001-0.013 0.001-0.021 0.001-0.063 0-0.12-0.024-0.164-0.063l0 0-0.123-0.246c0-0.246 0.123-0.369 0.308-0.369 0.018-0.007 0.040-0.011 0.062-0.011 0.102 0 0.185 0.083 0.185 0.185 0 0.004-0 0.007-0 0.011l0-0h0.185c0-0.246-0.185-0.369-0.431-0.369l-0.369 0.123c-0.082 0.088-0.132 0.206-0.132 0.336 0 0.034 0.003 0.066 0.010 0.098l-0.001-0.003c0 0.123 0 0.246 0.123 0.369 0.087 0.077 0.202 0.125 0.328 0.125 0.015 0 0.029-0.001 0.043-0.002l-0.002 0c0.185 0 0.308 0 0.431-0.185v-0.369h-0.431v0.185zM7.385 31.015h-0.246v0.985h0.677v-0.185h-0.431v-0.8zM9.415 31.015h-0.185v0.985h0.185v-0.985zM11.446 31.631l-0.369-0.615h-0.185v0.985h0.185v-0.615l0.369 0.615h0.185v-0.985h-0.185v0.615zM13.292 31.569h0.492v-0.185h-0.492v-0.246h0.554v-0.123h-0.738v0.985h0.738v-0.185h-0.554v-0.246zM17.846 31.385h-0.431v-0.369h-0.185v0.985h0.185v-0.431h0.369v0.431h0.185v-0.985h-0.123v0.369zM19.692 31.569h0.431v-0.185h-0.431v-0.246h0.554v-0.123h-0.738v0.985h0.738v-0.185h-0.554v-0.246zM22.154 31.569c0.185 0 0.246-0.123 0.246-0.308 0.001-0.006 0.001-0.013 0.001-0.021 0-0.063-0.024-0.12-0.063-0.164l0 0c-0.075-0.040-0.164-0.064-0.258-0.064-0.017 0-0.035 0.001-0.052 0.002l0.002-0h-0.431v0.985h0.246v-0.431h0.123l0.062 0.123 0.246 0.308h0.246l-0.123-0.185-0.246-0.246zM21.969 31.385h-0.123v-0.246h0.308c0.068 0 0.123 0.055 0.123 0.123s-0.055 0.123-0.123 0.123v0c-0.028 0.004-0.060 0.007-0.092 0.007s-0.065-0.003-0.096-0.007l0.003 0zM24.062 31.569h0.492v-0.185h-0.492v-0.246h0.554v-0.123h-0.738v0.985h0.738v-0.185h-0.554v-0.246z"></path>
</symbol>
<symbol id="icon-group3" viewBox="0 0 34 32">
<path fill="#afb1b8" style="fill: var(--color1, #afb1b8)" d="M5.638 31.314l0.229 0.152-0.457 0.305-0.686 0.152c-0.229 0-0.381 0-0.61-0.152l-0.457-0.229-0.305-0.457c-0.070-0.169-0.111-0.365-0.111-0.571s0.041-0.402 0.115-0.582l-0.004 0.010 0.305-0.457c0.152-0.076 0.305-0.229 0.533-0.229 0.182-0.061 0.392-0.096 0.61-0.096s0.427 0.035 0.624 0.1l-0.014-0.004 0.457 0.229-0.152 0.152h-0.229l-0.076-0.076c-0.17-0.096-0.374-0.153-0.59-0.153-0.007 0-0.013 0-0.020 0h0.001l-0.457 0.076-0.381 0.229c0 0.152-0.152 0.229-0.229 0.381v0.914l0.229 0.305 0.381 0.229h0.686c0.206-0.023 0.388-0.105 0.535-0.23l-0.001 0.001h0.076zM10.438 30.476l-0.076 0.61-0.381 0.457-0.457 0.229c-0.381 0.152-0.838 0.152-1.295 0-0.175-0.054-0.326-0.132-0.461-0.232l0.004 0.003-0.305-0.457c-0.070-0.169-0.111-0.365-0.111-0.571s0.041-0.402 0.115-0.582l-0.004 0.010c0-0.152 0.152-0.305 0.305-0.457l0.457-0.229c0.457-0.152 0.914-0.152 1.295 0l0.457 0.229c0.282 0.239 0.459 0.594 0.459 0.989 0 0.027-0.001 0.054-0.002 0.081l0-0.004zM9.981 30.476v-0.381c-0.091-0.293-0.317-0.519-0.603-0.608l-0.006-0.002c-0.137-0.045-0.294-0.070-0.457-0.070s-0.32 0.026-0.468 0.073l0.011-0.003-0.381 0.229-0.229 0.381v0.838c0.091 0.293 0.317 0.519 0.603 0.608l0.006 0.002h0.914l0.305-0.229c0.152-0.076 0.229-0.229 0.229-0.381l0.076-0.381zM13.714 31.010v0.076l0.076-0.076v-0.152l1.143-1.676h0.533v2.667h-0.381v-2.133l-1.067 1.676-0.152 0.076h-0.152l-1.295-1.752v2.21h-0.381v-2.667h0.457l1.067 1.676 0.076 0.152zM17.676 30.857v0.99h-0.381v-2.667h1.448c0.152 0 0.229 0.152 0.381 0.229l0.152 0.229 0.076 0.381v0.305l-0.305 0.305-0.305 0.152-0.533 0.076h-0.533zM17.676 30.552h0.838l0.229-0.152 0.152-0.152v-0.533c0-0.076 0-0.152-0.152-0.229l-0.533-0.152h-0.533v1.143zM23.314 31.848h-0.457l-0.305-0.762h-1.448l-0.305 0.762h-0.457l1.219-2.667h0.457l1.295 2.667zM21.257 30.857h1.143l-0.457-1.067-0.152-0.305v0.305l-0.533 1.067zM25.143 29.181l1.829 2.057v-2.057h0.381v2.667h-0.305l-1.905-2.133v2.057h-0.381v-2.667h0.305zM30.4 30.781v1.067h-0.381v-1.067l-1.143-1.6h0.457l0.762 1.143c0.027 0.063 0.053 0.139 0.074 0.217l0.002 0.011 0.076-0.152 0.076-0.076 0.762-1.067v-0.076h0.457l-1.067 1.6zM13.486 24.61h0.61c2.763-1.068 5.060-2.826 6.753-5.066l0.028-0.038c1.676-2.286 2.514-4.876 2.438-7.619l-3.048-2.59c0.187 0.85 0.295 1.826 0.295 2.827 0 2.040-0.445 3.975-1.244 5.715l0.035-0.085c-1.297 2.845-3.307 5.173-5.807 6.82l-0.060 0.037z"></path>
<path fill="#afb1b8" style="fill: var(--color1, #afb1b8)" d="M12.419 24.381v0.076c2.895-1.752 5.029-4.19 6.248-7.010s1.371-5.943 0.533-8.838l-4.343-3.81c1.374 2.346 2.186 5.165 2.186 8.175 0 4.436-1.763 8.46-4.628 11.41l0.004-0.004zM27.352 15.086c-0.836 3.143-2.673 5.772-5.143 7.592l-0.038 0.027-2.514 1.524c2.226-0.578 4.165-1.578 5.819-2.918l-0.029 0.022c1.524-1.295 2.895-2.895 3.657-4.648l-1.752-1.524z"></path>
<path fill="#afb1b8" style="fill: var(--color1, #afb1b8)" d="M26.667 14.705l-2.59-2.286c0 2.59-0.838 5.029-2.362 7.162s-3.657 3.886-6.248 5.105l1.752-0.076c2.362-0.838 4.495-2.286 6.095-3.962 1.553-1.604 2.697-3.613 3.257-5.854l0.019-0.089zM12.8 3.2l-3.048-2.667c-2.708 0.883-4.984 2.47-6.685 4.546l-0.020 0.025c-1.553 1.923-2.498 4.392-2.514 7.082l-0 0.004c0 2.819 1.067 5.486 3.048 7.619 1.981 2.286 4.8 3.81 7.848 4.571 2.851-2.91 4.611-6.9 4.611-11.3 0-3.704-1.247-7.117-3.344-9.842l0.028 0.038zM33.6 14.248c0-3.276-1.524-6.476-4.19-8.762-2.712-2.329-6.265-3.747-10.15-3.747-1.822 0-3.572 0.312-5.198 0.886l0.109-0.034 18.514 16.152c0.61-1.448 0.914-2.971 0.914-4.495z"></path>
</symbol>
<symbol id="icon-group4" viewBox="0 0 65 32">
<path fill="#2196f3" style="fill: var(--color2, #2196f3)" d="M10.016 9.983h-0.002c-1.827 0-3.308 1.316-3.308 2.94v0.002c0 1.624 1.481 2.94 3.308 2.94h0.002c1.827 0 3.308-1.316 3.308-2.94v-0.002c0-1.624-1.481-2.94-3.308-2.94z"></path>
<path fill="#2196f3" style="fill: var(--color2, #2196f3)" d="M34.434 9.043c-0.005-2.255-1.015-4.417-2.81-6.012s-4.226-2.493-6.764-2.498v0c-2.538 0.004-4.972 0.902-6.767 2.497s-2.806 3.757-2.811 6.013v0 12.436c0 0 19.149-1.895 19.151-12.434v-0.002z"></path>
<path fill="#2196f3" style="fill: var(--color2, #2196f3)" d="M0 25.562c0.005 1.569 0.708 3.073 1.956 4.183s2.94 1.735 4.706 1.74v0c1.765-0.005 3.457-0.63 4.705-1.739s1.952-2.613 1.957-4.182v0-8.654c0 0-13.325 1.32-13.325 8.652zM6.662 27.112c-0.345 0-0.682-0.091-0.969-0.261s-0.511-0.413-0.643-0.696c-0.132-0.283-0.167-0.595-0.099-0.896s0.233-0.577 0.477-0.794 0.555-0.364 0.893-0.424c0.338-0.060 0.689-0.029 1.008 0.088s0.591 0.316 0.783 0.571c0.192 0.255 0.294 0.555 0.294 0.861 0.001 0.204-0.044 0.406-0.131 0.595s-0.216 0.36-0.378 0.505c-0.162 0.145-0.355 0.259-0.567 0.338s-0.439 0.119-0.669 0.119v-0.006z"></path>
<path fill="#2196f3" style="fill: var(--color2, #2196f3)" d="M20.128 26.258h-1.286v1.328h-0.67v-3.25h2.116v0.542h-1.446v0.839h1.286v0.54zM23.346 26.035c0 0.32-0.057 0.6-0.17 0.842s-0.275 0.427-0.487 0.558c-0.21 0.131-0.451 0.196-0.723 0.196-0.269 0-0.51-0.065-0.721-0.194s-0.375-0.314-0.491-0.554c-0.116-0.241-0.175-0.518-0.176-0.83v-0.161c0-0.32 0.057-0.601 0.172-0.844 0.116-0.244 0.279-0.431 0.489-0.56 0.211-0.131 0.452-0.196 0.723-0.196s0.511 0.065 0.721 0.196c0.211 0.129 0.374 0.316 0.489 0.56 0.116 0.242 0.174 0.523 0.174 0.841v0.145zM22.668 25.888c0-0.341-0.061-0.6-0.183-0.777s-0.296-0.266-0.522-0.266c-0.225 0-0.398 0.088-0.52 0.263-0.122 0.174-0.184 0.43-0.185 0.768v0.158c0 0.332 0.061 0.589 0.183 0.772s0.298 0.275 0.527 0.275c0.225 0 0.397-0.088 0.518-0.263 0.121-0.177 0.182-0.434 0.183-0.772v-0.158zM25.518 26.734c0-0.126-0.045-0.223-0.134-0.29-0.089-0.068-0.25-0.14-0.482-0.214-0.232-0.076-0.416-0.15-0.551-0.223-0.369-0.199-0.554-0.468-0.554-0.806 0-0.176 0.049-0.332 0.147-0.469 0.1-0.138 0.242-0.246 0.426-0.324 0.186-0.077 0.394-0.116 0.625-0.116 0.232 0 0.439 0.042 0.621 0.127 0.181 0.083 0.322 0.202 0.422 0.355 0.101 0.153 0.152 0.327 0.152 0.522h-0.67c0-0.149-0.047-0.264-0.141-0.346-0.094-0.083-0.225-0.125-0.395-0.125-0.164 0-0.291 0.035-0.382 0.105-0.091 0.068-0.136 0.159-0.136 0.272 0 0.106 0.053 0.194 0.158 0.266 0.107 0.071 0.264 0.138 0.471 0.201 0.381 0.115 0.659 0.257 0.833 0.426s0.261 0.381 0.261 0.634c0 0.281-0.106 0.502-0.319 0.663-0.213 0.159-0.499 0.239-0.859 0.239-0.25 0-0.478-0.045-0.683-0.136-0.205-0.092-0.362-0.218-0.471-0.377-0.107-0.159-0.161-0.344-0.161-0.554h0.672c0 0.359 0.214 0.538 0.643 0.538 0.159 0 0.284-0.032 0.373-0.096 0.089-0.065 0.134-0.156 0.134-0.272zM29.092 24.879h-0.996v2.708h-0.67v-2.708h-0.982v-0.542h2.647v0.542zM31.431 26.178h-1.286v0.871h1.509v0.538h-2.179v-3.25h2.174v0.542h-1.504v0.775h1.286v0.525zM33.251 26.396h-0.533v1.19h-0.67v-3.25h1.208c0.384 0 0.68 0.086 0.888 0.257s0.312 0.413 0.312 0.725c0 0.222-0.048 0.407-0.145 0.556-0.095 0.147-0.24 0.265-0.435 0.353l0.703 1.328v0.031h-0.719l-0.609-1.19zM32.717 25.854h0.54c0.168 0 0.298-0.042 0.391-0.127 0.092-0.086 0.138-0.205 0.138-0.355 0-0.153-0.044-0.274-0.132-0.362-0.086-0.088-0.219-0.132-0.4-0.132h-0.538v0.975zM36.775 26.441v1.145h-0.67v-3.25h1.268c0.244 0 0.458 0.045 0.643 0.134 0.186 0.089 0.329 0.216 0.429 0.382 0.1 0.164 0.15 0.35 0.15 0.56 0 0.318-0.109 0.57-0.328 0.754-0.217 0.183-0.519 0.275-0.904 0.275h-0.587zM36.775 25.899h0.598c0.177 0 0.312-0.042 0.404-0.125 0.094-0.083 0.141-0.202 0.141-0.357 0-0.159-0.047-0.288-0.141-0.386s-0.223-0.149-0.388-0.152h-0.614v1.020zM41.012 26.178h-1.286v0.871h1.509v0.538h-2.179v-3.25h2.174v0.542h-1.504v0.775h1.286v0.525zM44.119 24.879h-0.995v2.708h-0.67v-2.708h-0.982v-0.542h2.647v0.542zM46.458 26.178h-1.286v0.871h1.509v0.538h-2.178v-3.25h2.174v0.542h-1.504v0.775h1.286v0.525zM48.277 26.396h-0.533v1.19h-0.67v-3.25h1.208c0.384 0 0.68 0.086 0.888 0.257s0.313 0.413 0.313 0.725c0 0.222-0.048 0.407-0.145 0.556-0.095 0.147-0.24 0.265-0.435 0.353l0.703 1.328v0.031h-0.719l-0.609-1.19zM47.744 25.854h0.54c0.168 0 0.298-0.042 0.391-0.127 0.092-0.086 0.138-0.205 0.138-0.355 0-0.153-0.044-0.274-0.132-0.362-0.086-0.088-0.219-0.132-0.4-0.132h-0.538v0.975zM51.679 26.734c0-0.126-0.045-0.223-0.134-0.29-0.089-0.068-0.25-0.14-0.482-0.214-0.232-0.076-0.416-0.15-0.551-0.223-0.369-0.199-0.554-0.468-0.554-0.806 0-0.176 0.049-0.332 0.147-0.469 0.1-0.138 0.242-0.246 0.426-0.324 0.186-0.077 0.394-0.116 0.625-0.116 0.232 0 0.439 0.042 0.621 0.127 0.182 0.083 0.322 0.202 0.422 0.355 0.101 0.153 0.152 0.327 0.152 0.522h-0.67c0-0.149-0.047-0.264-0.141-0.346-0.094-0.083-0.225-0.125-0.395-0.125-0.164 0-0.291 0.035-0.382 0.105-0.091 0.068-0.136 0.159-0.136 0.272 0 0.106 0.053 0.194 0.158 0.266 0.107 0.071 0.264 0.138 0.471 0.201 0.381 0.115 0.658 0.257 0.833 0.426s0.261 0.381 0.261 0.634c0 0.281-0.106 0.502-0.319 0.663-0.213 0.159-0.499 0.239-0.859 0.239-0.25 0-0.478-0.045-0.683-0.136-0.205-0.092-0.362-0.218-0.471-0.377-0.107-0.159-0.161-0.344-0.161-0.554h0.672c0 0.359 0.214 0.538 0.643 0.538 0.159 0 0.283-0.032 0.373-0.096 0.089-0.065 0.134-0.156 0.134-0.272z"></path>
</symbol>
<symbol id="icon-group5" viewBox="0 0 43 32">
<path fill="#afb1b8" style="fill: var(--color1, #afb1b8)" d="M3.239 26.373c0.166 0.188 0.254 0.424 0.25 0.665 0.008 0.158-0.022 0.315-0.089 0.46s-0.169 0.275-0.298 0.38c-0.322 0.223-0.722 0.332-1.125 0.307h-1.977v-4.215h1.937c0.382-0.023 0.761 0.076 1.073 0.28 0.125 0.096 0.224 0.217 0.289 0.354s0.095 0.286 0.086 0.435c0.011 0.233-0.068 0.461-0.225 0.645-0.15 0.168-0.358 0.284-0.589 0.329 0.262 0.044 0.499 0.172 0.668 0.36v0zM0.92 25.737h0.828c0.188 0.013 0.375-0.037 0.526-0.14 0.062-0.052 0.111-0.116 0.141-0.187s0.043-0.148 0.036-0.225c0.006-0.076-0.007-0.153-0.037-0.224s-0.078-0.135-0.138-0.188c-0.156-0.106-0.349-0.156-0.542-0.142h-0.814v1.106zM2.355 27.353c0.066-0.053 0.119-0.119 0.153-0.193s0.049-0.155 0.043-0.235c0.005-0.081-0.010-0.163-0.045-0.238s-0.088-0.142-0.155-0.195c-0.162-0.11-0.361-0.164-0.562-0.152h-0.868v1.159h0.879c0.198 0.011 0.394-0.041 0.556-0.146v0z"></path>
<path fill="#afb1b8" style="fill: var(--color1, #afb1b8)" d="M7.197 28.185l-1.077-1.647h-0.405v1.647h-0.927v-4.215h1.754c0.442-0.028 0.879 0.1 1.221 0.358 0.245 0.229 0.393 0.53 0.417 0.85s-0.078 0.637-0.287 0.894c-0.216 0.227-0.512 0.378-0.837 0.428l1.147 1.684h-1.008zM5.715 25.963h0.758c0.526 0 0.789-0.213 0.789-0.638 0.005-0.087-0.009-0.174-0.042-0.255s-0.085-0.156-0.151-0.218c-0.166-0.127-0.38-0.188-0.596-0.171h-0.767l0.009 1.283z"></path>
<path fill="#afb1b8" style="fill: var(--color1, #afb1b8)" d="M12.262 27.337h-1.847l-0.326 0.848h-0.972l1.696-4.168h1.050l1.689 4.168h-0.972l-0.319-0.848zM12.015 26.698l-0.675-1.779-0.675 1.779h1.349z"></path>
<path fill="#afb1b8" style="fill: var(--color1, #afb1b8)" d="M18.602 28.185h-0.92l-2.062-2.867v2.867h-0.918v-4.215h0.918l2.062 2.883v-2.883h0.92v4.215z"></path>
<path fill="#afb1b8" style="fill: var(--color1, #afb1b8)" d="M23.852 27.176c-0.19 0.318-0.48 0.577-0.832 0.743-0.4 0.185-0.845 0.276-1.293 0.266h-1.637v-4.215h1.637c0.448-0.011 0.891 0.078 1.293 0.259 0.352 0.163 0.642 0.419 0.832 0.735 0.189 0.343 0.288 0.722 0.288 1.106s-0.099 0.763-0.288 1.106v0zM22.799 27.075c0.263-0.28 0.407-0.637 0.407-1.006s-0.144-0.726-0.407-1.006c-0.317-0.254-0.731-0.382-1.152-0.358h-0.639v2.729h0.639c0.42 0.024 0.834-0.105 1.152-0.358z"></path>
<path fill="#afb1b8" style="fill: var(--color1, #afb1b8)" d="M12.838 0.522c0 0 11.873 4.104 11.621 10.043v10.045c0 0-11.864-4.106-11.617-10.045l-0.005-10.043z"></path>
<path fill="#afb1b8" style="fill: var(--color1, #afb1b8)" d="M35.037 18.259c2.242-1.413 4.836-2.288 7.544-2.545v-3.145c-3.12 1.101-5.766 3.097-7.544 5.69v0z"></path>
<path fill="#afb1b8" style="fill: var(--color1, #afb1b8)" d="M33.69 19.206c1.835-3.384 5.017-5.995 8.891-7.296v-9.061c0 0-16.909 5.846-16.551 14.304v14.302c0 0 0.753-0.262 1.939-0.752 0-0.457 0-0.918 0.054-1.382 0.35-3.926 2.389-7.565 5.668-10.115v0z"></path>
<path fill="#afb1b8" style="fill: var(--color1, #afb1b8)" d="M32.081 24.52c0.089-0.992 0.287-1.973 0.592-2.928-2.042 2.203-3.278 4.936-3.536 7.815-0.025 0.272-0.038 0.544-0.045 0.824 0.96-0.422 2.078-0.949 3.252-1.569-0.3-1.362-0.388-2.756-0.263-4.141v0z"></path>
<path fill="#afb1b8" style="fill: var(--color1, #afb1b8)" d="M32.754 24.571c-0.113 1.253-0.042 2.514 0.209 3.75 4.62-2.531 9.811-6.442 9.611-11.168v-0.412c-3.301 0.338-6.389 1.659-8.79 3.76-0.562 1.302-0.909 2.674-1.030 4.069v0z"></path>
</symbol>
<symbol id="icon-group6" viewBox="0 0 67 32">
<path fill="#afb1b8" style="fill: var(--color1, #afb1b8)" d="M33.724 15.224c-0.315-0.419-0.466-0.915-0.43-1.414v-2.050c0-0.628 0.142-1.106 0.428-1.433s0.775-0.489 1.469-0.488c0.652 0 1.115 0.139 1.389 0.417 0.299 0.355 0.444 0.789 0.411 1.226v0.482h-1.167v-0.488c0.004-0.16-0.007-0.319-0.034-0.478-0.017-0.108-0.076-0.208-0.167-0.284-0.12-0.081-0.271-0.121-0.423-0.111-0.16-0.010-0.318 0.031-0.444 0.117-0.102 0.084-0.169 0.193-0.193 0.313-0.033 0.167-0.049 0.337-0.046 0.507v2.488c-0.018 0.24 0.033 0.48 0.15 0.699 0.058 0.074 0.139 0.132 0.233 0.169s0.198 0.050 0.301 0.039c0.149 0.011 0.298-0.030 0.413-0.113 0.095-0.082 0.156-0.188 0.174-0.302 0.027-0.165 0.039-0.332 0.036-0.498v-0.505h1.167v0.461c0.033 0.456-0.109 0.909-0.403 1.289-0.268 0.305-0.725 0.457-1.396 0.457s-1.179-0.163-1.466-0.501z"></path>
<path fill="#afb1b8" style="fill: var(--color1, #afb1b8)" d="M38.583 15.245c-0.295-0.319-0.442-0.784-0.442-1.4v-2.157c0-0.609 0.147-1.070 0.442-1.383s0.788-0.469 1.478-0.467c0.686 0 1.177 0.156 1.471 0.467 0.295 0.313 0.444 0.774 0.444 1.383v2.157c0 0.609-0.15 1.076-0.449 1.397s-0.788 0.482-1.466 0.482c-0.679 0-1.181-0.163-1.478-0.48zM40.605 14.727c0.106-0.2 0.154-0.419 0.14-0.638v-2.641c0.014-0.215-0.034-0.43-0.138-0.626-0.059-0.075-0.142-0.135-0.238-0.172s-0.203-0.050-0.308-0.037c-0.105-0.013-0.212 0-0.308 0.037s-0.18 0.096-0.24 0.172c-0.106 0.195-0.154 0.41-0.14 0.626v2.653c-0.015 0.219 0.033 0.439 0.14 0.638 0.068 0.067 0.152 0.121 0.246 0.158s0.196 0.056 0.3 0.056c0.103 0 0.206-0.019 0.3-0.056s0.178-0.091 0.246-0.158v-0.012z"></path>
<path fill="#afb1b8" style="fill: var(--color1, #afb1b8)" d="M43.38 9.901h1.256l0.945 3.979 0.966-3.979h1.222l0.123 5.743h-0.904l-0.097-3.992-0.932 3.992h-0.725l-0.966-4.006-0.089 4.006h-0.913l0.114-5.743z"></path>
<path fill="#afb1b8" style="fill: var(--color1, #afb1b8)" d="M49.301 9.901h1.957c1.127 0 1.691 0.544 1.691 1.631 0 1.041-0.593 1.561-1.78 1.56h-0.667v2.553h-1.208l0.007-5.743zM50.973 12.356c0.119 0.013 0.24 0.004 0.355-0.028s0.22-0.084 0.309-0.154c0.139-0.194 0.2-0.422 0.174-0.649 0.006-0.175-0.013-0.35-0.058-0.521-0.017-0.057-0.047-0.111-0.089-0.158s-0.093-0.086-0.153-0.116c-0.168-0.069-0.353-0.101-0.539-0.092h-0.469v1.716h0.469z"></path>
<path fill="#afb1b8" style="fill: var(--color1, #afb1b8)" d="M54.691 9.901h1.297l1.331 5.743h-1.126l-0.263-1.324h-1.157l-0.271 1.324h-1.143l1.331-5.743zM55.8 13.655l-0.452-2.411-0.452 2.411h0.903z"></path>
<path fill="#afb1b8" style="fill: var(--color1, #afb1b8)" d="M58.395 9.901h0.846l1.619 3.276v-3.276h1.003v5.743h-0.804l-1.628-3.42v3.42h-1.036l0.002-5.743z"></path>
<path fill="#afb1b8" style="fill: var(--color1, #afb1b8)" d="M64.209 13.455l-1.346-3.546h1.133l0.821 2.277 0.771-2.277h1.109l-1.329 3.546v2.19h-1.16v-2.19z"></path>
<path fill="#afb1b8" style="fill: var(--color1, #afb1b8)" d="M35.589 18.156v0.3h-0.986v2.334h-0.413v-2.334h-0.99v-0.3h2.389z"></path>
<path fill="#afb1b8" style="fill: var(--color1, #afb1b8)" d="M38.679 20.79h-0.319c-0.032 0.002-0.064-0.007-0.089-0.025-0.024-0.015-0.043-0.036-0.053-0.060l-0.285-0.626h-1.367l-0.285 0.626c-0.008 0.026-0.023 0.050-0.044 0.071-0.025 0.017-0.057 0.026-0.089 0.025h-0.319l1.208-2.634h0.42l1.222 2.624zM36.679 19.812h1.14l-0.483-1.072c-0.036-0.081-0.066-0.164-0.089-0.248-0.017 0.050-0.031 0.098-0.046 0.14l-0.044 0.11-0.478 1.070z"></path>
<path fill="#afb1b8" style="fill: var(--color1, #afb1b8)" d="M40.762 20.532c0.076 0.003 0.151 0.003 0.227 0 0.065-0.006 0.13-0.016 0.193-0.031 0.059-0.013 0.117-0.029 0.174-0.048 0.053-0.019 0.106-0.042 0.162-0.065v-0.592h-0.483c-0.012 0.001-0.024-0.001-0.035-0.005s-0.021-0.009-0.030-0.016c-0.008-0.006-0.014-0.013-0.018-0.022s-0.006-0.017-0.006-0.026v-0.202h0.937v1.010c-0.077 0.047-0.157 0.089-0.242 0.125-0.086 0.037-0.176 0.067-0.268 0.090-0.099 0.025-0.2 0.043-0.302 0.054-0.117 0.011-0.235 0.017-0.353 0.017-0.208 0.002-0.415-0.032-0.609-0.098-0.181-0.063-0.345-0.156-0.483-0.275-0.134-0.12-0.24-0.262-0.312-0.417-0.076-0.175-0.114-0.36-0.111-0.547-0.003-0.188 0.034-0.374 0.109-0.551 0.069-0.156 0.176-0.298 0.312-0.417 0.138-0.119 0.302-0.212 0.483-0.273 0.207-0.067 0.426-0.1 0.647-0.098 0.112-0 0.225 0.008 0.336 0.023 0.098 0.014 0.195 0.036 0.288 0.067 0.084 0.027 0.165 0.062 0.242 0.104 0.074 0.041 0.144 0.087 0.21 0.138l-0.116 0.163c-0.009 0.015-0.023 0.027-0.039 0.036s-0.036 0.014-0.055 0.014c-0.027-0.001-0.053-0.008-0.075-0.021-0.036-0.017-0.075-0.038-0.118-0.063-0.051-0.028-0.106-0.052-0.162-0.071-0.072-0.025-0.146-0.044-0.222-0.058-0.101-0.016-0.204-0.024-0.307-0.023-0.159-0.002-0.318 0.023-0.466 0.073-0.134 0.047-0.256 0.118-0.355 0.209-0.1 0.095-0.177 0.206-0.225 0.328-0.108 0.285-0.108 0.593 0 0.878 0.053 0.124 0.135 0.237 0.242 0.332 0.099 0.090 0.219 0.162 0.353 0.209 0.154 0.046 0.316 0.063 0.478 0.052v0z"></path>
<path fill="#afb1b8" style="fill: var(--color1, #afb1b8)" d="M44.612 20.49h1.319v0.3h-1.722v-2.634h0.413l-0.010 2.334z"></path>
<path fill="#afb1b8" style="fill: var(--color1, #afb1b8)" d="M47.304 20.79h-0.413v-2.634h0.413v2.634z"></path>
<path fill="#afb1b8" style="fill: var(--color1, #afb1b8)" d="M48.84 18.168c0.025 0.012 0.046 0.028 0.063 0.048l1.766 1.986c-0.002-0.031-0.002-0.063 0-0.094 0-0.029 0-0.058 0-0.085v-1.877h0.36v2.645h-0.208c-0.031 0.002-0.062-0.003-0.089-0.015-0.025-0.013-0.047-0.030-0.065-0.050l-1.764-1.984c0 0.031 0 0.061 0 0.090s0 0.056 0 0.081v1.877h-0.345v-2.634h0.215c0.023 0 0.046 0.004 0.068 0.012v0z"></path>
<path fill="#afb1b8" style="fill: var(--color1, #afb1b8)" d="M54.070 18.156v0.29h-1.464v0.87h1.186v0.279h-1.186v0.899h1.464v0.29h-1.889v-2.628h1.889z"></path>
<path fill="#afb1b8" style="fill: var(--color1, #afb1b8)" d="M10.782 1.888l18.343 4.497v15.757l-18.343-4.494v-15.759zM9.605 0.545v17.867l20.694 5.074v-17.865l-20.694-5.076z"></path>
<path fill="#afb1b8" style="fill: var(--color1, #afb1b8)" d="M20.696 31.781l-20.696-5.079v-17.866l20.696 5.076v17.868z"></path>
<path fill="#afb1b8" style="fill: var(--color1, #afb1b8)" d="M9.948 1.686l18.104 4.44-7.699 6.649-18.106-4.442 7.702-6.647zM9.605 0.545l-9.605 8.292 20.696 5.076 9.603-8.292-20.694-5.076z"></path>
<path fill="#afb1b8" style="fill: var(--color1, #afb1b8)" d="M21.861 30.776l8.438-7.287-8.438-2.071v9.358z"></path>
</symbol>
</defs>
</svg>
